<svg xmlns="http://www.w3.org/2000/svg" version="1.1" xmlns:xlink="http://www.w3.org/1999/xlink" xmlns:svgjs="http://svgjs.dev/svgjs" width="128" height="128" viewBox="0 0 128 128"><g transform="matrix(0.8046875,0,0,0.8046875,12.333870967741937,12.333870967741937)"><svg viewBox="0 0 155 155" data-background-color="#ee2120" preserveAspectRatio="xMidYMid meet" height="128" width="128" xmlns="http://www.w3.org/2000/svg" xmlns:xlink="http://www.w3.org/1999/xlink"><g id="tight-bounds" transform="matrix(1,0,0,1,0.25,0.25)"><svg viewBox="0 0 154.5 154.5" height="154.5" width="154.5"><g><svg></svg></g><g><svg viewBox="0 0 154.5 154.5" height="154.5" width="154.5"><g transform="matrix(1,0,0,1,56.59334482845189,47.74637100000001)"><svg viewBox="0 0 41.31331034309623 59.007257999999986" height="59.007257999999986" width="41.31331034309623"><g><svg viewBox="0 0 41.31331034309623 59.007257999999986" height="59.007257999999986" width="41.31331034309623"><g><svg viewBox="0 0 41.31331034309623 59.007257999999986" height="59.007257999999986" width="41.31331034309623"><g id="textblocktransform"><svg viewBox="0 0 41.31331034309623 59.007257999999986" height="59.007257999999986" width="41.31331034309623" id="textblock"><g><svg viewBox="0 0 41.31331034309623 59.007257999999986" height="59.007257999999986" width="41.31331034309623"><g transform="matrix(1,0,0,1,0,0)"><svg width="41.31331034309623" viewBox="3.25 -35.01 24.51 35.01" height="59.007257999999986" data-palette-color="#ffabc7"><path d="M27.76-7.01L27.76 0 3.25 0 3.25-35.01 10.25-35.01 10.25-7.01 27.76-7.01Z" opacity="1" transform="matrix(1,0,0,1,0,0)" fill="#ffabc7" class="wordmark-text-0" data-fill-palette-color="primary" id="text-0"></path></svg></g></svg></g></svg></g></svg></g></svg></g></svg></g><path d="M56.593 41.746L56.593 1 97.907 1 97.907 41.746 92.585 41.746 92.585 6.321 61.915 6.321 61.915 41.746 56.593 41.746M56.593 112.754L56.593 153.5 97.907 153.5 97.907 112.754 92.585 112.754 92.585 148.179 61.915 148.179 61.915 112.754 56.593 112.754" fill="#ffabc7" stroke="transparent" data-fill-palette-color="tertiary"></path></svg></g><defs></defs></svg><rect width="154.5" height="154.5" fill="none" stroke="none" visibility="hidden"></rect></g></svg></g></svg>